<svg xmlns="http://www.w3.org/2000/svg" width="574" height="800.07" viewBox="0 0 574 800.07">
  <g id="kilometer_noneditable" transform="translate(-213 -100)">
    <path id="Path_32036" data-name="Path 32036" d="M243.07,773H756.93A30.07,30.07,0,0,1,787,803.07v89a8,8,0,0,1-8,8H221a8,8,0,0,1-8-8v-89A30.07,30.07,0,0,1,243.07,773Z" fill="#fbfbfb"/>
    <path id="Path_32037" data-name="Path 32037" d="M711.61,310a223.139,223.139,0,0,0-61.82-145.58C611.44,124.61,558.49,100,500,100c-113.78,0-206.6,93.15-211.61,210Z" transform="translate(-0.39)" fill="#f70"/>
    <g id="Group_20050" data-name="Group 20050">
      <path id="Path_32038" data-name="Path 32038" d="M288.17,330V753H711.83V330Z" transform="translate(-0.17)" fill="#fbfbfb"/>
      <g id="Group_20049" data-name="Group 20049" transform="translate(0 33)">
        <path id="Path_32039" data-name="Path 32039" d="M4.68-16.44q4.08-3.24,3.72-3Q20.16-29.16,26.94-35.4A76.757,76.757,0,0,0,38.4-48.48q4.68-6.84,4.68-13.32,0-4.92-2.28-7.68t-6.84-2.76a8.444,8.444,0,0,0-7.14,3.42q-2.58,3.42-2.58,9.66H4.44q.24-10.2,4.38-17.04A25.441,25.441,0,0,1,19.74-86.28,34.479,34.479,0,0,1,34.8-89.52q14.28,0,21.54,7.32T63.6-63.12q0,12.84-8.76,23.82A129.01,129.01,0,0,1,32.52-17.88h32.4V-1.2H4.68Zm68.52,0q4.08-3.24,3.72-3Q88.68-29.16,95.46-35.4a76.757,76.757,0,0,0,11.46-13.08q4.68-6.84,4.68-13.32,0-4.92-2.28-7.68t-6.84-2.76a8.444,8.444,0,0,0-7.14,3.42q-2.58,3.42-2.58,9.66H72.96q.24-10.2,4.38-17.04A25.441,25.441,0,0,1,88.26-86.28a34.479,34.479,0,0,1,15.06-3.24q14.28,0,21.54,7.32t7.26,19.08q0,12.84-8.76,23.82a129.01,129.01,0,0,1-22.32,21.42h32.4V-1.2H73.2Z" transform="translate(432 483)" fill="#1d1d1d"/>
        <path id="Path_32040" data-name="Path 32040" d="M-114.64-55.84v9.04h-14.88V0h-11.2V-46.8H-155.6v-9.04Zm5.28,33.52a25.651,25.651,0,0,1,2.68-11.92,19.643,19.643,0,0,1,7.28-8,19.382,19.382,0,0,1,10.28-2.8,18.058,18.058,0,0,1,8.68,2A17.613,17.613,0,0,1-74.48-38v-6.32H-63.2V0H-74.48V-6.48a16.659,16.659,0,0,1-5.96,5.16A18.235,18.235,0,0,1-89.2.72,18.835,18.835,0,0,1-99.4-2.16a20.156,20.156,0,0,1-7.28-8.12A26.077,26.077,0,0,1-109.36-22.32Zm34.88.16a14.366,14.366,0,0,0-1.6-7,11.281,11.281,0,0,0-4.32-4.48,11.546,11.546,0,0,0-5.84-1.56A11.343,11.343,0,0,0-92-33.68a11.446,11.446,0,0,0-4.28,4.44,13.908,13.908,0,0,0-1.64,6.92,14.367,14.367,0,0,0,1.64,7,11.808,11.808,0,0,0,4.32,4.6,10.974,10.974,0,0,0,5.72,1.6,11.546,11.546,0,0,0,5.84-1.56,11.281,11.281,0,0,0,4.32-4.48A14.366,14.366,0,0,0-74.48-22.16Zm33.44-15.28a15.746,15.746,0,0,1,5.64-5.52,15.686,15.686,0,0,1,7.96-2V-33.2H-30.4q-5.28,0-7.96,2.48t-2.68,8.64V0h-11.2V-44.32h11.2ZM5.04-44.96A17.992,17.992,0,0,1,14-42.76a15.159,15.159,0,0,1,6.12,6.48A22.247,22.247,0,0,1,22.32-26V0H11.12V-24.48q0-5.28-2.64-8.12a9.35,9.35,0,0,0-7.2-2.84A9.581,9.581,0,0,0-6.04-32.6q-2.68,2.84-2.68,8.12V0h-11.2V-59.2h11.2v20.4a14.6,14.6,0,0,1,5.76-4.52A19.075,19.075,0,0,1,5.04-44.96ZM30.08-22.32a25.651,25.651,0,0,1,2.68-11.92,19.643,19.643,0,0,1,7.28-8,19.382,19.382,0,0,1,10.28-2.8,18.058,18.058,0,0,1,8.68,2A17.613,17.613,0,0,1,64.96-38v-6.32H76.24V0H64.96V-6.48A16.659,16.659,0,0,1,59-1.32,18.235,18.235,0,0,1,50.24.72a18.835,18.835,0,0,1-10.2-2.88,20.156,20.156,0,0,1-7.28-8.12A26.077,26.077,0,0,1,30.08-22.32Zm34.88.16a14.366,14.366,0,0,0-1.6-7,11.281,11.281,0,0,0-4.32-4.48A11.546,11.546,0,0,0,53.2-35.2a11.343,11.343,0,0,0-5.76,1.52,11.446,11.446,0,0,0-4.28,4.44,13.908,13.908,0,0,0-1.64,6.92,14.367,14.367,0,0,0,1.64,7,11.808,11.808,0,0,0,4.32,4.6,10.974,10.974,0,0,0,5.72,1.6,11.546,11.546,0,0,0,5.84-1.56,11.281,11.281,0,0,0,4.32-4.48A14.366,14.366,0,0,0,64.96-22.16Zm19.36-.16A25.651,25.651,0,0,1,87-34.24a19.55,19.55,0,0,1,7.32-8,19.589,19.589,0,0,1,10.32-2.8,18.824,18.824,0,0,1,8.24,1.88,16.475,16.475,0,0,1,6.24,5V-59.2h11.36V0H119.12V-6.56a15.178,15.178,0,0,1-5.84,5.28,18.294,18.294,0,0,1-8.72,2A19.036,19.036,0,0,1,94.32-2.16,20.055,20.055,0,0,1,87-10.28,26.077,26.077,0,0,1,84.32-22.32Zm34.88.16a14.366,14.366,0,0,0-1.6-7,11.281,11.281,0,0,0-4.32-4.48,11.546,11.546,0,0,0-5.84-1.56,11.343,11.343,0,0,0-5.76,1.52,11.446,11.446,0,0,0-4.28,4.44,13.908,13.908,0,0,0-1.64,6.92,14.367,14.367,0,0,0,1.64,7,11.808,11.808,0,0,0,4.32,4.6,10.974,10.974,0,0,0,5.72,1.6,11.546,11.546,0,0,0,5.84-1.56,11.281,11.281,0,0,0,4.32-4.48A14.366,14.366,0,0,0,119.2-22.16ZM147.12-49.6a6.824,6.824,0,0,1-4.92-1.88,6.22,6.22,0,0,1-1.96-4.68,6.22,6.22,0,0,1,1.96-4.68,6.824,6.824,0,0,1,4.92-1.88,6.824,6.824,0,0,1,4.92,1.88A6.22,6.22,0,0,1,154-56.16a6.22,6.22,0,0,1-1.96,4.68A6.824,6.824,0,0,1,147.12-49.6Zm5.52,5.28V0h-11.2V-44.32Z" transform="translate(501 626)" fill="#1d1d1d"/>
      </g>
    </g>
  </g>
</svg>
